<svg xmlns="http://www.w3.org/2000/svg" xmlns:xlink="http://www.w3.org/1999/xlink" width="1920" zoomAndPan="magnify" viewBox="0 0 1440 809.999993" height="1080" preserveAspectRatio="xMidYMid meet" version="1.0"><defs><clipPath id="c31817bacc"><path d="M 436.210938 9.035156 L 1003.960938 9.035156 L 1003.960938 801 L 436.210938 801 Z M 436.210938 9.035156 " clip-rule="nonzero"/></clipPath><clipPath id="c44f1a5b04"><path d="M 630.898438 461.917969 L 809.398438 461.917969 L 809.398438 692.167969 L 630.898438 692.167969 Z M 630.898438 461.917969 " clip-rule="nonzero"/></clipPath></defs><rect x="-144" width="1728" fill="#ffffff" y="-80.999999" height="971.999992" fill-opacity="1"/><rect x="-144" width="1728" fill="#ffffff" y="-80.999999" height="971.999992" fill-opacity="1"/><g clip-path="url(#c31817bacc)"><path fill="#b1b9c6" d="M 990.957031 681.71875 C 983.566406 615.671875 974.371094 533.476562 965.8125 468.625 C 950.578125 353.226562 944.828125 348.96875 940.632812 345.855469 C 938.007812 343.910156 933.613281 340.652344 864.082031 337.933594 C 859.042969 337.742188 853.789062 337.550781 848.347656 337.371094 C 847.699219 310.109375 845.738281 281.582031 838.050781 254.929688 C 832.558594 235.902344 820.445312 219.226562 802.984375 206.5625 C 801.15625 202.3125 799.226562 198.113281 797.199219 193.960938 C 808.375 182.558594 814.191406 169.300781 814.46875 154.480469 C 815.105469 120.921875 787.546875 91.964844 779.082031 83.890625 C 758.746094 64.484375 737.457031 50.039062 707.882812 35.585938 L 656.199219 10.324219 C 655.773438 10.117188 655.335938 9.949219 654.878906 9.824219 C 654.417969 9.703125 653.953125 9.625 653.480469 9.59375 C 653.007812 9.5625 652.539062 9.574219 652.070312 9.636719 C 651.597656 9.699219 651.140625 9.804688 650.691406 9.957031 C 650.242188 10.109375 649.8125 10.304688 649.402344 10.542969 C 648.992188 10.78125 648.609375 11.054688 648.253906 11.367188 C 647.898438 11.683594 647.578125 12.027344 647.292969 12.402344 C 647.003906 12.78125 646.757812 13.179688 646.546875 13.605469 C 646.339844 14.03125 646.175781 14.472656 646.054688 14.933594 C 645.933594 15.390625 645.859375 15.855469 645.832031 16.328125 C 645.800781 16.800781 645.820312 17.273438 645.886719 17.742188 C 645.949219 18.210938 646.058594 18.667969 646.214844 19.117188 C 646.371094 19.5625 646.566406 19.992188 646.808594 20.402344 C 647.046875 20.808594 647.324219 21.191406 647.640625 21.542969 C 647.957031 21.898438 648.300781 22.214844 648.679688 22.5 C 649.058594 22.785156 649.460938 23.03125 649.886719 23.238281 L 701.570312 48.496094 C 729.738281 62.265625 749.957031 75.960938 769.160156 94.285156 C 792.390625 116.457031 800.375 139.773438 800.105469 154.207031 C 799.925781 163.753906 796.554688 172.523438 790.09375 180.386719 C 782.214844 166.28125 773.195312 152.949219 763.035156 140.390625 C 762.738281 140.023438 762.40625 139.6875 762.046875 139.386719 C 761.683594 139.085938 761.292969 138.820312 760.878906 138.59375 C 760.464844 138.371094 760.03125 138.1875 759.582031 138.046875 C 759.132812 137.90625 758.671875 137.8125 758.203125 137.761719 C 757.734375 137.710938 757.265625 137.710938 756.792969 137.753906 C 756.324219 137.796875 755.863281 137.882812 755.410156 138.015625 C 754.957031 138.152344 754.523438 138.328125 754.105469 138.546875 C 753.6875 138.765625 753.296875 139.023438 752.929688 139.320312 C 752.5625 139.617188 752.226562 139.949219 751.925781 140.3125 C 751.625 140.671875 751.359375 141.0625 751.132812 141.476562 C 750.910156 141.890625 750.726562 142.324219 750.585938 142.773438 C 750.445312 143.222656 750.351562 143.683594 750.300781 144.152344 C 750.253906 144.621094 750.25 145.09375 750.292969 145.5625 C 750.335938 146.03125 750.421875 146.492188 750.558594 146.945312 C 750.691406 147.398438 750.867188 147.832031 751.085938 148.25 C 751.304688 148.667969 751.566406 149.0625 751.859375 149.425781 C 767.671875 168.96875 780.488281 190.308594 790.308594 213.445312 C 793.5 220.960938 795.65625 227.242188 795.800781 233.46875 C 795.949219 239.792969 793.617188 245.484375 789.722656 248.332031 C 784.304688 252.289062 776.183594 250.941406 770.539062 247.851562 C 763.332031 243.902344 757.589844 236.980469 752.039062 230.289062 C 751.601562 229.761719 751.097656 229.304688 750.53125 228.921875 C 749.964844 228.539062 749.355469 228.242188 748.703125 228.035156 C 748.050781 227.824219 747.378906 227.710938 746.695312 227.691406 C 746.011719 227.675781 745.335938 227.753906 744.675781 227.929688 C 744.011719 228.101562 743.386719 228.367188 742.800781 228.71875 C 742.214844 229.074219 741.6875 229.503906 741.222656 230.003906 C 740.761719 230.507812 740.375 231.066406 740.070312 231.679688 C 739.765625 232.296875 739.554688 232.9375 739.433594 233.613281 C 739.238281 234.722656 738.949219 235.804688 738.570312 236.863281 C 738.191406 237.921875 737.726562 238.941406 737.179688 239.925781 C 736.628906 240.90625 736.003906 241.835938 735.300781 242.714844 C 734.59375 243.589844 733.824219 244.402344 732.984375 245.152344 C 732.144531 245.898438 731.246094 246.574219 730.292969 247.171875 C 729.339844 247.769531 728.347656 248.285156 727.308594 248.714844 C 726.269531 249.148438 725.203125 249.492188 724.105469 249.742188 C 723.007812 249.996094 721.898438 250.160156 720.777344 250.226562 C 719.65625 250.296875 718.535156 250.269531 717.414062 250.152344 C 716.296875 250.03125 715.195312 249.820312 714.113281 249.515625 C 713.03125 249.214844 711.980469 248.824219 710.960938 248.34375 C 709.941406 247.867188 708.972656 247.304688 708.046875 246.664062 C 707.125 246.023438 706.257812 245.3125 705.453125 244.527344 C 704.648438 243.742188 703.914062 242.894531 703.25 241.984375 C 702.585938 241.078125 702.003906 240.121094 701.5 239.113281 C 700.996094 238.109375 700.578125 237.070312 700.246094 235.992188 C 700.007812 235.210938 699.640625 234.488281 699.15625 233.828125 C 698.667969 233.167969 698.082031 232.609375 697.402344 232.148438 C 696.722656 231.691406 695.988281 231.355469 695.191406 231.148438 C 694.398438 230.941406 693.59375 230.875 692.777344 230.941406 C 691.960938 231.011719 691.175781 231.214844 690.429688 231.550781 C 689.679688 231.886719 689.011719 232.339844 688.417969 232.90625 C 687.824219 233.472656 687.339844 234.121094 686.96875 234.851562 C 686.597656 235.585938 686.359375 236.355469 686.253906 237.171875 C 685.296875 244.496094 676.644531 249.414062 669.519531 249.265625 C 658.964844 249.03125 650.289062 241.308594 646.058594 236.722656 C 642.382812 232.742188 633.8125 220.121094 632.78125 218.535156 C 631.089844 215.925781 629.339844 213.230469 627.527344 210.589844 C 625.546875 207.699219 623.714844 204.992188 621.992188 202.445312 C 606.496094 179.519531 598.71875 168.011719 568.035156 155.460938 C 567.601562 155.28125 567.148438 155.148438 566.6875 155.058594 C 566.222656 154.96875 565.757812 154.925781 565.285156 154.925781 C 564.8125 154.929688 564.347656 154.976562 563.882812 155.070312 C 563.421875 155.164062 562.972656 155.304688 562.539062 155.484375 C 562.105469 155.667969 561.691406 155.890625 561.300781 156.15625 C 560.910156 156.417969 560.546875 156.71875 560.214844 157.054688 C 559.882812 157.386719 559.585938 157.753906 559.328125 158.144531 C 559.066406 158.539062 558.847656 158.953125 558.667969 159.390625 C 558.488281 159.828125 558.355469 160.277344 558.265625 160.738281 C 558.175781 161.203125 558.132812 161.671875 558.132812 162.140625 C 558.136719 162.613281 558.183594 163.082031 558.277344 163.542969 C 558.371094 164.003906 558.507812 164.453125 558.691406 164.890625 C 558.875 165.324219 559.097656 165.738281 559.359375 166.128906 C 559.625 166.519531 559.921875 166.878906 560.257812 167.214844 C 560.59375 167.546875 560.957031 167.839844 561.351562 168.101562 C 561.742188 168.363281 562.160156 168.582031 562.59375 168.761719 C 589.25 179.664062 594.921875 188.058594 610.085938 210.492188 C 611.828125 213.066406 613.675781 215.804688 615.679688 218.722656 C 617.386719 221.207031 620.949219 226.695312 621.058594 226.867188 C 618.351562 230.359375 615.859375 234 613.582031 237.789062 C 596.257812 266.585938 591.554688 298.386719 590.53125 336.746094 C 583.285156 336.964844 576.371094 337.207031 569.859375 337.472656 C 499.394531 340.339844 494.574219 344.824219 491.691406 347.503906 C 488.207031 350.746094 482.941406 355.648438 470.96875 457.613281 C 464.140625 515.757812 456.949219 589.707031 450.605469 654.957031 C 445.261719 709.886719 440.21875 761.769531 436.480469 792.734375 C 436.417969 793.238281 436.410156 793.746094 436.457031 794.25 C 436.503906 794.757812 436.601562 795.253906 436.753906 795.738281 C 436.90625 796.222656 437.105469 796.6875 437.355469 797.128906 C 437.605469 797.570312 437.898438 797.984375 438.238281 798.363281 C 438.574219 798.742188 438.945312 799.085938 439.355469 799.386719 C 439.765625 799.6875 440.203125 799.941406 440.664062 800.148438 C 441.128906 800.359375 441.609375 800.515625 442.105469 800.621094 C 442.601562 800.730469 443.105469 800.78125 443.613281 800.785156 L 443.640625 800.785156 L 996.40625 798.605469 C 996.914062 798.601562 997.417969 798.546875 997.914062 798.4375 C 998.414062 798.328125 998.894531 798.167969 999.355469 797.957031 C 999.820312 797.746094 1000.253906 797.488281 1000.664062 797.1875 C 1001.074219 796.882812 1001.445312 796.539062 1001.78125 796.15625 C 1002.117188 795.773438 1002.40625 795.359375 1002.65625 794.917969 C 1002.902344 794.472656 1003.101562 794.007812 1003.25 793.519531 C 1003.398438 793.03125 1003.496094 792.535156 1003.539062 792.027344 C 1003.582031 791.519531 1003.570312 791.015625 1003.507812 790.511719 C 1000.347656 765.660156 995.996094 726.761719 990.957031 681.71875 Z M 625.902344 245.183594 C 627.089844 243.207031 628.351562 241.292969 629.660156 239.421875 C 631.480469 241.839844 633.410156 244.203125 635.5 246.46875 C 645.476562 257.277344 657.449219 263.375 669.207031 263.632812 C 671.523438 263.679688 673.820312 263.480469 676.097656 263.035156 C 678.375 262.589844 680.578125 261.90625 682.707031 260.988281 C 684.835938 260.070312 686.84375 258.9375 688.730469 257.589844 C 690.617188 256.242188 692.339844 254.707031 693.898438 252.992188 C 695.640625 254.917969 697.574219 256.628906 699.699219 258.128906 C 701.820312 259.628906 704.082031 260.878906 706.480469 261.878906 C 708.878906 262.882812 711.359375 263.609375 713.917969 264.0625 C 716.476562 264.515625 719.054688 264.683594 721.652344 264.566406 C 732.667969 263.894531 742.792969 257.515625 748.699219 248.386719 C 753.03125 253.210938 758.011719 257.234375 763.632812 260.460938 C 766.34375 261.972656 769.203125 263.125 772.203125 263.921875 C 775.207031 264.714844 778.261719 265.125 781.367188 265.15625 C 784.375 265.203125 787.320312 264.78125 790.195312 263.890625 C 793.074219 263 795.742188 261.6875 798.199219 259.949219 C 805.953125 254.285156 810.425781 244.265625 810.167969 233.144531 C 810.167969 232.953125 810.152344 232.769531 810.144531 232.582031 C 813.394531 236.425781 816.203125 240.570312 818.582031 245.007812 C 820.957031 249.445312 822.84375 254.082031 824.242188 258.917969 C 830.179688 279.503906 833.0625 302.476562 833.957031 336.941406 C 799.011719 335.964844 758.023438 335.367188 717.164062 335.261719 C 676.398438 335.160156 637.777344 335.542969 604.933594 336.351562 C 606.40625 287.421875 614.398438 264.308594 625.902344 245.183594 Z M 451.699219 786.375 C 455.308594 755.085938 459.789062 709.007812 464.910156 656.34375 C 471.105469 592.636719 478.125 520.433594 484.800781 463.046875 C 494.332031 381.140625 499.507812 362.371094 501.570312 358.171875 C 504.5625 357.054688 517.820312 353.859375 573.886719 351.691406 C 579.121094 351.488281 584.609375 351.300781 590.3125 351.125 C 590.199219 370.113281 590.734375 391.425781 591.34375 415.660156 L 591.484375 421.335938 C 591.496094 421.800781 591.550781 422.261719 591.652344 422.714844 C 591.753906 423.167969 591.894531 423.605469 592.082031 424.03125 C 592.265625 424.457031 592.492188 424.859375 592.753906 425.242188 C 593.019531 425.625 593.316406 425.976562 593.648438 426.300781 C 593.980469 426.625 594.339844 426.914062 594.730469 427.167969 C 595.117188 427.421875 595.527344 427.636719 595.957031 427.8125 C 596.386719 427.988281 596.828125 428.121094 597.285156 428.210938 C 597.738281 428.296875 598.199219 428.34375 598.664062 428.34375 L 598.847656 428.34375 C 599.320312 428.332031 599.785156 428.273438 600.246094 428.171875 C 600.707031 428.066406 601.152344 427.917969 601.582031 427.726562 C 602.011719 427.535156 602.421875 427.304688 602.808594 427.035156 C 603.191406 426.761719 603.546875 426.453125 603.875 426.113281 C 604.199219 425.769531 604.488281 425.402344 604.738281 425.003906 C 604.992188 424.605469 605.203125 424.183594 605.371094 423.742188 C 605.542969 423.304688 605.667969 422.851562 605.746094 422.386719 C 605.828125 421.921875 605.863281 421.453125 605.851562 420.980469 L 605.707031 415.300781 C 605.097656 390.980469 604.5625 369.621094 604.6875 350.730469 C 637.558594 349.910156 676.375 349.523438 717.195312 349.628906 C 761.792969 349.746094 801.4375 350.378906 834.21875 351.3125 C 834.371094 364.570312 834.320312 378.75 834.265625 394.792969 C 834.238281 402.019531 834.21875 409.535156 834.207031 417.339844 C 834.203125 417.8125 834.25 418.277344 834.34375 418.742188 C 834.433594 419.203125 834.570312 419.65625 834.75 420.089844 C 834.929688 420.527344 835.152344 420.941406 835.414062 421.332031 C 835.675781 421.726562 835.972656 422.089844 836.304688 422.421875 C 836.636719 422.757812 837 423.054688 837.394531 423.316406 C 837.785156 423.582031 838.199219 423.800781 838.632812 423.984375 C 839.070312 424.164062 839.519531 424.300781 839.980469 424.394531 C 840.445312 424.488281 840.910156 424.53125 841.382812 424.535156 L 841.390625 424.535156 C 841.863281 424.535156 842.328125 424.488281 842.792969 424.394531 C 843.253906 424.304688 843.703125 424.167969 844.140625 423.988281 C 844.574219 423.808594 844.988281 423.585938 845.382812 423.324219 C 845.773438 423.0625 846.136719 422.765625 846.46875 422.429688 C 846.804688 422.097656 847.101562 421.734375 847.363281 421.34375 C 847.625 420.953125 847.847656 420.539062 848.027344 420.101562 C 848.207031 419.667969 848.34375 419.21875 848.4375 418.757812 C 848.53125 418.292969 848.578125 417.828125 848.578125 417.355469 C 848.585938 409.554688 848.605469 402.050781 848.636719 394.839844 C 848.691406 378.980469 848.738281 364.9375 848.597656 351.753906 C 894.601562 353.289062 924.496094 355.441406 931.777344 357.484375 C 934.160156 362.308594 940.207031 383.640625 952.203125 475.339844 C 960.554688 539.191406 969.496094 619.105469 976.675781 683.316406 C 981.207031 723.820312 985.183594 759.359375 988.246094 784.261719 Z M 451.699219 786.375 " fill-opacity="1" fill-rule="nonzero"/></g><g clip-path="url(#c44f1a5b04)"><path fill="#b1b9c6" d="M 720.34375 461.960938 C 720.246094 461.949219 720.148438 461.941406 720.046875 461.933594 C 717.085938 461.742188 714.527344 463.988281 714.335938 466.949219 C 712.1875 500.238281 704.644531 525.5 691.792969 542.699219 C 679.117188 559.664062 660.894531 569.3125 635.960938 570.765625 C 633.199219 570.929688 631.011719 573.15625 630.902344 575.914062 C 630.789062 578.675781 632.792969 581.070312 635.53125 581.453125 C 657.011719 584.445312 674.769531 593.1875 688.09375 609.632812 C 701.519531 626.203125 710.859375 651.117188 714.316406 687.195312 C 714.59375 690.078125 717.101562 692.210938 719.972656 692.046875 C 720.015625 692.054688 720.0625 692.058594 720.109375 692.0625 C 723.0625 692.347656 725.691406 690.183594 725.976562 687.230469 C 729.449219 651.167969 738.789062 626.25 752.214844 609.671875 C 765.53125 593.226562 783.285156 584.476562 804.761719 581.484375 C 807.5 581.101562 809.503906 578.707031 809.390625 575.945312 C 809.28125 573.1875 807.09375 570.960938 804.332031 570.796875 C 779.417969 569.34375 761.199219 559.695312 748.527344 542.730469 C 735.679688 525.53125 728.136719 500.269531 725.988281 466.980469 C 725.800781 464.042969 723.28125 461.808594 720.34375 461.960938 Z M 720.160156 503.285156 C 716.039062 521.5 709.550781 536.894531 700.410156 549.128906 C 690.375 562.558594 677.332031 571.925781 661.3125 577.0625 C 674.789062 582.402344 686.660156 590.785156 696.453125 602.871094 C 707.109375 616.027344 715.097656 633.316406 720.15625 655.304688 C 725.222656 633.339844 733.203125 616.066406 743.851562 602.914062 C 753.644531 590.824219 765.511719 582.433594 778.992188 577.09375 C 762.980469 571.957031 749.941406 562.589844 739.910156 549.15625 C 730.769531 536.917969 724.277344 521.515625 720.160156 503.285156 Z M 720.160156 503.285156 " fill-opacity="1" fill-rule="evenodd"/></g></svg>